<svg width="16" height="16" viewBox="0 0 16 16" fill="none" xmlns="http://www.w3.org/2000/svg">
<path d="M7 10.3333C7 9.78099 7.43173 9.33325 7.96427 9.33325H8.03573C8.56827 9.33325 9 9.78099 9 10.3333C9 10.8855 8.56827 11.3333 8.03573 11.3333H7.96427C7.43173 11.3333 7 10.8855 7 10.3333Z" stroke="#949FA8"/>
<path d="M7.99996 14.6667C10.3932 14.6667 12.3333 12.7266 12.3333 10.3333C12.3333 7.9401 10.3932 6 7.99996 6C5.60673 6 3.66663 7.9401 3.66663 10.3333C3.66663 12.7266 5.60673 14.6667 7.99996 14.6667Z" stroke="#949FA8"/>
<path d="M5.99996 6.33325L3.66663 1.33325" stroke="#949FA8"/>
<path d="M10 6.33325L12.3333 1.33325" stroke="#949FA8"/>
<path d="M9.66667 1.33325L8 4.99991" stroke="#949FA8"/>
<path d="M8.33337 5.99992L6.33337 1.33325" stroke="#949FA8"/>
</svg>
